<svg width="249" height="33" viewBox="0 0 249 33" fill="none" xmlns="http://www.w3.org/2000/svg">
<path d="M0.136 25L8.024 2.56H15.028L22.882 25H16.864L15.334 19.934H7.582L6.018 25H0.136ZM10.506 10.55L8.806 15.956H14.11L12.478 10.584L11.492 7.048H11.424L10.506 10.55ZM35.0118 21.226C36.9838 21.226 38.4911 21.6453 39.5338 22.484C40.5991 23.3 41.1318 24.4787 41.1318 26.02C41.1318 28.1507 40.2818 29.726 38.5818 30.746C36.9044 31.7887 34.6378 32.31 31.7818 32.31C28.6991 32.31 26.4778 31.9247 25.1178 31.154C23.7578 30.3833 23.0778 29.3407 23.0778 28.026C23.0778 27.2553 23.3271 26.598 23.8258 26.054C24.3471 25.51 25.1744 25.136 26.3078 24.932C24.6531 24.32 23.8258 23.1753 23.8258 21.498C23.8258 20.7047 24.0638 20.0133 24.5398 19.424C25.0158 18.812 25.6731 18.37 26.5118 18.098C24.6984 17.1007 23.7918 15.548 23.7918 13.44C23.7918 11.604 24.5058 10.1873 25.9338 9.19C27.3844 8.17 29.4131 7.66 32.0198 7.66C33.3344 7.66 34.5244 7.796 35.5898 8.068C35.6804 7.252 35.9071 6.49267 36.2698 5.79C36.6551 5.08733 37.1764 4.52067 37.8338 4.09C38.5138 3.63667 39.3411 3.41 40.3158 3.41C40.3838 3.41 40.4631 3.42133 40.5538 3.444C40.6444 3.444 40.7464 3.444 40.8598 3.444L41.3358 7.32C41.0864 7.252 40.8144 7.218 40.5198 7.218C39.7264 7.218 39.0918 7.37667 38.6158 7.694C38.1398 8.01133 37.8224 8.41933 37.6638 8.918C39.3638 9.91533 40.2138 11.4227 40.2138 13.44C40.2138 15.276 39.4884 16.6927 38.0378 17.69C36.6098 18.6873 34.6038 19.186 32.0198 19.186C30.8411 19.186 29.7758 19.084 28.8238 18.88C28.0758 19.1067 27.7018 19.5033 27.7018 20.07C27.7018 20.8407 28.3364 21.226 29.6058 21.226H35.0118ZM32.0198 10.958C31.2718 10.958 30.6598 11.1733 30.1838 11.604C29.7304 12.0347 29.5038 12.6467 29.5038 13.44C29.5038 14.2107 29.7304 14.8113 30.1838 15.242C30.6598 15.6727 31.2718 15.888 32.0198 15.888C32.7451 15.888 33.3458 15.6727 33.8218 15.242C34.2978 14.8113 34.5358 14.2107 34.5358 13.44C34.5358 12.6467 34.2978 12.0347 33.8218 11.604C33.3458 11.1733 32.7451 10.958 32.0198 10.958ZM31.8158 28.57C33.4478 28.57 34.6604 28.4 35.4538 28.06C36.2698 27.7427 36.6778 27.3347 36.6778 26.836C36.6778 26.496 36.5418 26.224 36.2698 26.02C36.0204 25.8387 35.5784 25.748 34.9438 25.748H28.8578C28.4271 25.748 28.0758 25.8613 27.8038 26.088C27.5544 26.3147 27.4298 26.598 27.4298 26.938C27.4298 27.4593 27.8151 27.856 28.5858 28.128C29.3564 28.4227 30.4331 28.57 31.8158 28.57ZM51.0452 25.34C48.2118 25.34 45.9678 24.5693 44.3132 23.028C42.6812 21.4867 41.8652 19.3107 41.8652 16.5C41.8652 14.6413 42.2392 13.0547 42.9872 11.74C43.7578 10.4027 44.8005 9.394 46.1152 8.714C47.4525 8.01133 49.0052 7.66 50.7732 7.66C52.5638 7.66 54.0825 8.01133 55.3292 8.714C56.5985 9.394 57.5618 10.346 58.2192 11.57C58.8765 12.7713 59.2052 14.154 59.2052 15.718C59.2052 16.1487 59.1825 16.568 59.1372 16.976C59.1145 17.3613 59.0918 17.69 59.0692 17.962H47.4752C47.6338 19.1407 48.0192 19.9907 48.6312 20.512C49.2432 21.0107 50.0478 21.26 51.0452 21.26C51.9065 21.26 52.5865 21.09 53.0852 20.75C53.6065 20.41 53.9918 19.934 54.2412 19.322L58.8652 20.852C58.5478 21.8267 57.9925 22.654 57.1992 23.334C56.4285 23.9913 55.4992 24.49 54.4112 24.83C53.3458 25.17 52.2238 25.34 51.0452 25.34ZM50.7732 11.706C48.9372 11.706 47.8492 12.76 47.5092 14.868H53.7312C53.4818 12.76 52.4958 11.706 50.7732 11.706ZM61.7586 25V8H66.9266L67.0966 11.434C67.6179 10.1873 68.3773 9.24667 69.3746 8.612C70.3719 7.97733 71.5506 7.66 72.9106 7.66C74.6559 7.66 76.0726 8.17 77.1606 9.19C78.2486 10.21 78.7926 11.706 78.7926 13.678V25H73.0126V15.208C73.0126 14.0293 72.7859 13.2133 72.3326 12.76C71.8793 12.3067 71.3013 12.08 70.5986 12.08C69.7599 12.08 69.0346 12.3747 68.4226 12.964C67.8333 13.5533 67.5386 14.562 67.5386 15.99V25H61.7586ZM88.4186 25.34C86.3106 25.34 84.6106 24.5693 83.3186 23.028C82.0493 21.4867 81.4146 19.3333 81.4146 16.568C81.4146 14.664 81.7093 13.0547 82.2986 11.74C82.9106 10.4027 83.7493 9.394 84.8146 8.714C85.9026 8.01133 87.1493 7.66 88.5546 7.66C89.7559 7.66 90.7759 7.95467 91.6146 8.544C92.4759 9.13333 93.1219 9.91533 93.5526 10.89V0.792H99.3326V25H94.1646L93.9606 21.668C93.4846 22.8013 92.7593 23.6967 91.7846 24.354C90.8326 25.0113 89.7106 25.34 88.4186 25.34ZM90.4246 21.09C91.3766 21.09 92.1359 20.6933 92.7026 19.9C93.2693 19.1067 93.5526 17.9393 93.5526 16.398C93.5526 14.97 93.2806 13.8707 92.7366 13.1C92.1926 12.3067 91.4333 11.91 90.4586 11.91C89.4613 11.91 88.6679 12.284 88.0786 13.032C87.5119 13.7573 87.2286 14.9133 87.2286 16.5C87.2286 18.0867 87.5119 19.254 88.0786 20.002C88.6453 20.7273 89.4273 21.09 90.4246 21.09ZM112.285 14.222C112.285 13.4287 112.058 12.8053 111.605 12.352C111.174 11.876 110.585 11.638 109.837 11.638C109.089 11.638 108.443 11.8307 107.899 12.216C107.378 12.5787 107.015 13.236 106.811 14.188L101.915 13.032C102.232 11.4 103.071 10.0967 104.431 9.122C105.791 8.14733 107.706 7.66 110.177 7.66C112.67 7.66 114.597 8.21533 115.957 9.326C117.34 10.414 118.031 12.012 118.031 14.12V20.342C118.031 21.226 118.428 21.668 119.221 21.668C119.629 21.668 119.958 21.6227 120.207 21.532L119.867 24.83C119.187 25.1473 118.36 25.306 117.385 25.306C116.32 25.306 115.402 25.102 114.631 24.694C113.86 24.2633 113.339 23.6173 113.067 22.756C112.591 23.64 111.832 24.2973 110.789 24.728C109.769 25.136 108.681 25.34 107.525 25.34C105.78 25.34 104.386 24.9433 103.343 24.15C102.323 23.334 101.813 22.1667 101.813 20.648C101.813 19.424 102.176 18.4153 102.901 17.622C103.649 16.806 104.816 16.2393 106.403 15.922L112.285 14.698V14.222ZM107.525 20.104C107.525 20.6027 107.706 20.9767 108.069 21.226C108.432 21.4753 108.862 21.6 109.361 21.6C110.132 21.6 110.812 21.3733 111.401 20.92C111.99 20.444 112.285 19.7073 112.285 18.71V17.758L109.531 18.336C108.851 18.472 108.341 18.676 108.001 18.948C107.684 19.1973 107.525 19.5827 107.525 20.104Z" fill="black"/>
<path d="M122.216 25V2.56H139.692V7.082H128.064V11.638H137.312V15.888H128.064V20.478H140.134V25H122.216ZM153.196 8H159.18L153.06 25H146.158L140.038 8H146.124L149.626 20.954L153.196 8ZM168.522 25.34C165.688 25.34 163.444 24.5693 161.79 23.028C160.158 21.4867 159.342 19.3107 159.342 16.5C159.342 14.6413 159.716 13.0547 160.464 11.74C161.234 10.4027 162.277 9.394 163.592 8.714C164.929 8.01133 166.482 7.66 168.25 7.66C170.04 7.66 171.559 8.01133 172.806 8.714C174.075 9.394 175.038 10.346 175.696 11.57C176.353 12.7713 176.682 14.154 176.682 15.718C176.682 16.1487 176.659 16.568 176.614 16.976C176.591 17.3613 176.568 17.69 176.546 17.962H164.952C165.11 19.1407 165.496 19.9907 166.108 20.512C166.72 21.0107 167.524 21.26 168.522 21.26C169.383 21.26 170.063 21.09 170.562 20.75C171.083 20.41 171.468 19.934 171.718 19.322L176.342 20.852C176.024 21.8267 175.469 22.654 174.676 23.334C173.905 23.9913 172.976 24.49 171.888 24.83C170.822 25.17 169.7 25.34 168.522 25.34ZM168.25 11.706C166.414 11.706 165.326 12.76 164.986 14.868H171.208C170.958 12.76 169.972 11.706 168.25 11.706ZM179.235 25V8H184.403L184.573 11.434C185.095 10.1873 185.854 9.24667 186.851 8.612C187.849 7.97733 189.027 7.66 190.387 7.66C192.133 7.66 193.549 8.17 194.637 9.19C195.725 10.21 196.269 11.706 196.269 13.678V25H190.489V15.208C190.489 14.0293 190.263 13.2133 189.809 12.76C189.356 12.3067 188.778 12.08 188.075 12.08C187.237 12.08 186.511 12.3747 185.899 12.964C185.31 13.5533 185.015 14.562 185.015 15.99V25H179.235ZM211.712 8V12.114H206.646V18.948C206.646 19.764 206.838 20.3533 207.224 20.716C207.632 21.056 208.187 21.226 208.89 21.226C209.434 21.226 209.898 21.1693 210.284 21.056C210.669 20.92 211.032 20.7273 211.372 20.478L211.984 24.048C211.417 24.4333 210.692 24.7507 209.808 25C208.946 25.2267 208.074 25.34 207.19 25.34C205.24 25.34 203.699 24.932 202.566 24.116C201.455 23.2773 200.888 21.872 200.866 19.9V12.114H197.942V8H200.866V4.192L206.646 2.594V8H211.712ZM221.793 7.66C223.584 7.66 225.148 8.01133 226.485 8.714C227.845 9.41667 228.899 10.4253 229.647 11.74C230.418 13.0547 230.803 14.6413 230.803 16.5C230.803 18.3587 230.418 19.9453 229.647 21.26C228.899 22.5747 227.845 23.5833 226.485 24.286C225.148 24.9887 223.584 25.34 221.793 25.34C220.025 25.34 218.461 24.9887 217.101 24.286C215.764 23.5833 214.71 22.5747 213.939 21.26C213.191 19.9453 212.817 18.3587 212.817 16.5C212.817 14.6413 213.191 13.0547 213.939 11.74C214.71 10.4253 215.764 9.41667 217.101 8.714C218.461 8.01133 220.025 7.66 221.793 7.66ZM221.793 11.774C220.796 11.774 220.014 12.148 219.447 12.896C218.903 13.6213 218.631 14.8227 218.631 16.5C218.631 18.1547 218.903 19.356 219.447 20.104C220.014 20.852 220.796 21.226 221.793 21.226C222.813 21.226 223.595 20.852 224.139 20.104C224.706 19.356 224.989 18.1547 224.989 16.5C224.989 14.8227 224.706 13.6213 224.139 12.896C223.595 12.148 222.813 11.774 221.793 11.774ZM240.515 25.34C238.815 25.34 237.24 25.068 235.789 24.524C234.338 23.9573 233.126 23.1527 232.151 22.11L234.871 18.914C235.438 19.6393 236.186 20.2513 237.115 20.75C238.067 21.226 239.121 21.464 240.277 21.464C240.98 21.464 241.558 21.362 242.011 21.158C242.464 20.954 242.691 20.6367 242.691 20.206C242.691 19.9113 242.578 19.662 242.351 19.458C242.124 19.254 241.671 19.084 240.991 18.948L238.611 18.472C236.48 18.0413 234.962 17.4067 234.055 16.568C233.171 15.7067 232.729 14.5847 232.729 13.202C232.729 12.2727 233.012 11.3887 233.579 10.55C234.146 9.71133 235.018 9.02 236.197 8.476C237.376 7.932 238.883 7.66 240.719 7.66C244.232 7.66 246.794 8.63467 248.403 10.584L245.649 13.712C245.105 13.032 244.402 12.4993 243.541 12.114C242.68 11.7287 241.818 11.536 240.957 11.536C239.302 11.536 238.475 11.9553 238.475 12.794C238.475 13.0887 238.611 13.3493 238.883 13.576C239.178 13.8027 239.71 13.984 240.481 14.12L243.575 14.732C245.32 15.072 246.578 15.6613 247.349 16.5C248.12 17.316 248.505 18.3133 248.505 19.492C248.505 21.1467 247.836 22.5407 246.499 23.674C245.184 24.7847 243.19 25.34 240.515 25.34Z" fill="#F8375A"/>
</svg>
